<?xml version="1.0" standalone="no"?>
<!DOCTYPE svg PUBLIC "-//W3C//DTD SVG 20010904//EN"
 "http://www.w3.org/TR/2001/REC-SVG-20010904/DTD/svg10.dtd">
<svg version="1.0" xmlns="http://www.w3.org/2000/svg"
 width="1174.000000pt" height="1174.000000pt" viewBox="0 0 1174.000000 1174.000000"
 preserveAspectRatio="xMidYMid meet">
<metadata>
Created by potrace 1.11, written by Peter Selinger 2001-2013
</metadata>
<g transform="translate(0.000000,1174.000000) scale(0.100000,-0.100000)"
fill="#000000" stroke="none">
<path d="M7320 6657 c0 -7 8 -22 18 -33 18 -21 42 -60 42 -69 0 -3 -52 -5
-115 -5 -114 0 -115 0 -121 -25 -13 -52 -2 -55 249 -54 215 0 232 1 259 20 15
11 28 29 28 40 0 17 -8 19 -91 19 l-91 0 5 28 c5 24 1 31 -26 48 -63 38 -157
57 -157 31z"/>
<path d="M8553 6653 c-7 -2 -13 -13 -13 -23 0 -10 -5 -22 -11 -25 -5 -4 -64
-6 -130 -6 l-119 2 0 -46 0 -45 130 0 130 0 0 -40 0 -41 68 3 67 3 3 38 3 37
100 0 c54 0 99 -3 100 -7 1 -5 2 -21 3 -38 1 -30 1 -30 69 -33 l67 -3 0 41 0
40 108 0 c123 0 155 12 150 58 l-3 27 -125 1 -125 1 -5 29 c-5 28 -8 29 -63
32 -56 3 -58 2 -68 -27 -12 -34 -9 -33 -129 -33 -72 -1 -75 0 -79 23 -1 13 -8
27 -15 31 -12 9 -94 9 -113 1z"/>
<path d="M4138 6558 l-3 -93 -59 -3 c-62 -3 -87 8 -69 30 6 7 13 27 16 43 5
26 1 32 -21 43 -14 6 -34 12 -43 12 -10 0 -21 5 -24 10 -3 6 -16 10 -28 10
-18 0 -25 -9 -35 -47 -35 -129 -63 -215 -83 -255 -5 -10 -9 -27 -9 -38 0 -11
-4 -20 -10 -20 -5 0 -10 -7 -10 -15 0 -8 -8 -29 -18 -47 -31 -56 -33 -66 -10
-60 22 5 168 147 168 163 0 5 9 19 20 31 11 12 20 27 20 34 0 15 32 21 100 19
112 -4 100 11 100 -125 l0 -120 -155 0 -155 0 0 -40 0 -40 155 0 156 0 -3
-132 -3 -133 -210 -5 -210 -5 0 -35 0 -35 476 0 c432 0 477 2 492 17 9 9 17
26 17 37 0 20 -6 21 -197 23 l-198 3 -3 133 -3 132 134 0 c117 0 136 2 150 18
10 10 17 28 17 40 0 22 -3 22 -150 22 l-150 0 0 120 0 120 88 1 c193 1 232 11
232 58 l0 30 -157 3 -158 3 -3 93 -3 92 -79 0 -79 0 -3 -92z"/>
<path d="M2627 6318 c-3 -172 -10 -329 -15 -348 -5 -19 -15 -62 -22 -95 -7
-33 -17 -64 -22 -70 -4 -5 -8 -16 -8 -25 0 -9 -9 -36 -21 -59 -11 -24 -19 -45
-16 -47 15 -16 156 85 157 113 0 4 9 19 20 33 11 14 20 35 20 47 0 12 4 24 9
27 21 13 51 293 50 466 0 80 0 155 0 168 1 22 3 22 141 22 l140 0 0 -48 c0
-26 -5 -53 -12 -60 -8 -8 -47 -12 -110 -12 l-98 0 0 -200 0 -200 121 0 121 0
-4 -127 c-3 -129 -16 -181 -55 -221 -32 -33 -1 -41 71 -20 44 13 106 67 106
93 0 8 5 15 10 15 6 0 10 50 10 130 l0 130 90 0 c53 0 90 4 90 10 0 6 6 10 14
10 7 0 21 11 30 25 13 20 16 54 16 190 l0 165 -160 0 c-88 0 -160 2 -160 5 0
3 18 24 40 46 22 23 40 48 40 55 0 11 28 14 145 14 157 0 173 5 189 58 l7 22
-464 0 -464 0 -6 -312z m693 -88 l0 -120 -171 0 -170 0 3 42 3 42 124 -2 c76
-1 131 3 145 10 27 14 45 38 46 60 0 16 -16 18 -157 20 l-158 3 -3 33 -3 32
170 0 171 0 0 -120z"/>
<path d="M6434 6606 c-3 -8 -4 -25 -2 -38 3 -23 5 -23 148 -26 79 -1 147 -6
150 -11 3 -5 1 -75 -4 -155 l-9 -146 -67 0 c-37 0 -69 2 -71 5 -3 2 -1 32 4
67 4 35 10 87 13 116 l6 52 -61 0 c-34 0 -61 -3 -62 -7 0 -5 -3 -17 -5 -28
-16 -72 -28 -159 -28 -215 l-1 -65 188 -3 187 -2 0 -170 c0 -102 -4 -171 -10
-175 -5 -3 -10 -15 -10 -26 0 -11 -9 -29 -19 -40 -11 -12 -21 -30 -24 -41 -5
-18 -2 -19 46 -13 29 4 54 10 57 14 3 3 14 11 24 17 11 6 24 19 30 30 6 10 14
21 17 24 4 3 9 19 13 35 9 41 10 400 2 414 -4 6 -30 11 -58 11 l-51 0 7 43 c3
23 9 111 13 195 l6 152 -212 0 c-174 0 -213 -3 -217 -14z"/>
<path d="M7740 6141 l0 -481 23 -1 c56 -3 99 0 105 6 4 4 7 202 8 441 1 276 5
439 11 445 6 6 28 9 49 7 57 -4 57 -21 3 -241 -24 -97 -24 -108 1 -135 11 -12
20 -28 20 -37 0 -8 5 -15 10 -15 6 0 10 -10 10 -23 0 -13 5 -28 12 -35 6 -6
11 -46 12 -95 1 -88 -9 -120 -51 -167 -30 -32 -29 -40 4 -40 63 0 163 64 163
104 0 8 5 18 10 21 6 3 10 37 10 75 0 38 -4 72 -10 75 -5 3 -10 17 -10 30 0
16 -20 45 -60 86 -33 34 -60 65 -60 69 0 4 14 36 31 71 18 35 35 73 39 84 4
11 17 41 29 66 28 57 30 121 5 146 -15 16 -40 18 -191 21 l-173 3 0 -480z"/>
<path d="M6013 6603 c-7 -2 -13 -20 -13 -39 l0 -34 50 0 c28 0 50 -3 50 -7 -1
-15 -30 -179 -40 -228 -6 -27 -13 -62 -17 -78 -3 -15 -9 -30 -14 -33 -5 -3 -9
-16 -9 -29 0 -13 -4 -27 -10 -30 -5 -3 -10 -17 -10 -31 0 -13 -4 -24 -10 -24
-5 0 -10 -9 -10 -20 0 -26 8 -25 31 1 33 38 39 15 39 -147 l0 -154 130 0 c104
0 136 3 155 16 l25 16 0 254 0 254 -90 0 c-83 0 -90 1 -90 20 0 11 5 20 10 20
6 0 10 11 10 24 0 14 4 27 9 30 5 3 12 22 15 41 3 19 9 51 12 70 l6 35 65 0
c71 0 93 13 93 54 l0 26 -187 -1 c-104 0 -194 -3 -200 -6z m232 -583 l0 -185
-42 -3 -43 -3 0 191 0 191 43 -3 42 -3 0 -185z"/>
<path d="M1500 6555 l0 -45 386 0 387 0 23 28 c28 31 30 47 9 56 -8 3 -193 5
-410 6 l-395 0 0 -45z"/>
<path d="M4840 6560 c0 -39 1 -40 34 -40 65 0 66 -2 66 -114 0 -66 -4 -106
-12 -114 -7 -7 -29 -12 -50 -12 -37 0 -38 -1 -38 -35 0 -34 1 -35 38 -35 21 0
43 -5 50 -12 15 -15 17 -241 2 -269 -8 -14 -21 -19 -48 -19 -21 0 -46 -6 -55
-13 -17 -12 -17 -15 0 -67 25 -79 33 -85 85 -60 23 11 48 20 55 20 7 0 13 3
13 8 0 4 18 15 39 24 22 10 51 29 65 43 14 14 29 25 34 25 10 0 82 65 82 74 0
10 -45 7 -57 -5 -6 -6 -23 -9 -39 -7 l-29 3 -3 105 c-4 139 -1 150 43 150 29
0 37 5 45 26 13 34 6 44 -33 44 -55 0 -58 6 -55 126 l3 108 44 8 c51 9 58 14
63 48 l3 25 -172 2 -173 3 0 -40z"/>
<path d="M5247 6593 c-4 -3 -7 -22 -7 -42 l0 -36 264 5 c145 3 266 7 269 10 2
3 10 16 17 29 10 19 10 25 -1 32 -16 10 -532 12 -542 2z"/>
<path d="M8731 6467 c-6 -6 -11 -19 -11 -29 0 -10 -4 -27 -10 -38 -5 -11 -14
-29 -20 -40 -5 -11 -10 -27 -10 -35 0 -8 -4 -15 -9 -15 -5 0 -11 -8 -14 -17
-7 -23 -37 -72 -59 -96 -9 -10 -18 -27 -21 -36 -3 -14 1 -17 19 -13 13 2 24 8
24 13 0 5 6 9 14 9 8 0 37 23 66 51 l51 50 21 -23 c11 -13 27 -35 36 -50 9
-16 20 -28 24 -28 15 0 8 -18 -9 -23 -18 -6 -73 -37 -83 -47 -12 -12 -134 -70
-147 -70 -29 0 -6 -25 28 -30 l34 -5 3 -162 2 -163 230 0 c136 0 230 4 230 9
0 5 8 12 18 16 27 8 43 74 42 168 -2 123 -2 127 16 127 20 0 38 18 63 64 36
64 33 68 -74 81 -114 15 -125 17 -125 31 0 8 27 41 60 75 54 55 60 65 60 103
0 60 -18 66 -196 66 l-144 0 6 25 c7 28 2 31 -63 38 -23 3 -46 0 -52 -6z m289
-144 c0 -14 -114 -117 -118 -105 -2 6 -12 12 -23 12 -10 0 -19 5 -19 10 0 6
-7 10 -15 10 -9 0 -28 11 -42 24 -22 21 -24 27 -14 40 11 13 36 16 122 16 60
0 109 -3 109 -7z m-35 -263 c31 -16 65 -30 75 -30 10 0 23 -7 30 -15 11 -13
-11 -15 -186 -15 -177 1 -197 2 -180 15 11 8 32 15 47 15 15 0 31 5 34 10 3 6
17 10 31 10 13 0 24 5 24 10 0 6 9 10 19 10 11 0 23 5 26 10 9 15 18 13 80
-20z m53 -227 l3 -83 -131 0 -130 0 0 78 c0 43 3 82 7 86 4 3 61 5 127 4 l121
-3 3 -82z"/>
<path d="M7210 6443 c0 -5 11 -30 25 -57 14 -27 25 -57 25 -67 0 -10 5 -21 10
-24 6 -3 10 -15 10 -26 0 -17 -7 -19 -70 -19 l-70 0 0 -40 0 -40 263 0 c243 0
265 1 280 18 10 10 17 28 17 40 0 21 -4 22 -110 22 -60 0 -110 4 -110 8 0 5
16 14 35 22 35 14 105 80 105 99 0 5 6 11 13 14 18 7 -22 36 -50 37 -13 0 -23
5 -23 10 0 6 -13 10 -30 10 -23 0 -30 -5 -30 -19 0 -11 -4 -23 -10 -26 -5 -3
-10 -15 -10 -25 0 -11 -9 -35 -20 -55 -11 -20 -20 -44 -20 -55 0 -18 -7 -20
-70 -20 -38 0 -70 4 -70 8 0 4 12 15 28 24 41 24 72 54 72 68 0 15 -50 60 -67
60 -7 0 -13 5 -13 10 0 6 -9 10 -20 10 -11 0 -20 5 -20 10 0 6 -16 10 -35 10
-19 0 -35 -3 -35 -7z"/>
<path d="M8350 6422 c0 -4 25 -34 55 -67 30 -32 55 -65 55 -72 0 -24 36 -14
51 15 8 15 22 35 33 45 19 17 18 18 -10 42 -16 14 -39 25 -51 25 -12 0 -25 5
-28 10 -7 12 -105 14 -105 2z"/>
<path d="M5194 6286 c-3 -8 -4 -25 -2 -38 3 -20 10 -24 53 -28 l50 -5 3 -61
c3 -61 -29 -208 -49 -228 -5 -6 -9 -18 -9 -28 0 -10 -3 -18 -8 -18 -4 0 -14
-15 -22 -32 -7 -18 -22 -42 -32 -52 -10 -11 -18 -24 -18 -29 0 -5 -18 -26 -40
-47 -22 -21 -40 -41 -40 -44 0 -13 41 -5 73 13 70 39 81 47 111 73 76 67 105
110 147 213 11 29 19 80 26 163 5 67 7 73 31 79 54 13 57 5 62 -229 6 -237 8
-246 78 -285 26 -16 192 -18 192 -3 0 6 7 10 15 10 9 0 19 8 22 18 4 9 9 19
13 22 8 7 28 110 21 110 -3 0 -28 -11 -55 -25 -126 -64 -154 -23 -155 224 -1
85 3 139 10 148 7 8 32 13 65 13 77 0 104 13 104 50 l0 30 -320 0 c-269 0
-322 -2 -326 -14z"/>
<path d="M1400 6230 l0 -40 150 0 c152 0 159 -2 141 -38 -5 -9 -24 -48 -42
-87 -19 -38 -39 -76 -46 -83 -7 -7 -20 -30 -30 -50 -24 -52 -37 -62 -78 -62
l-37 0 5 -52 c3 -29 9 -70 13 -91 l6 -39 52 6 c28 3 80 10 116 16 36 6 82 13
103 16 20 4 40 10 43 15 3 5 20 9 39 9 19 0 36 4 39 9 3 5 22 12 41 15 19 3
51 9 70 12 19 3 35 10 35 15 0 5 10 9 23 9 13 0 28 5 34 11 20 20 65 6 84 -26
10 -16 18 -38 18 -47 1 -10 6 -18 11 -18 6 0 10 -7 10 -15 0 -23 22 -65 34
-65 13 1 146 125 146 138 0 4 -8 17 -18 28 -10 10 -29 35 -42 54 -32 45 -95
108 -140 140 -19 13 -44 32 -54 42 -11 10 -26 18 -33 18 -7 0 -13 5 -13 10 0
6 -9 10 -19 10 -11 0 -23 5 -26 10 -11 18 -35 11 -35 -10 0 -11 5 -20 10 -20
6 0 10 -6 10 -13 0 -7 9 -23 20 -35 11 -12 20 -28 20 -37 0 -8 3 -15 8 -15 8
0 32 -48 32 -66 0 -18 -47 -23 -262 -30 -146 -5 -198 -4 -198 5 0 6 6 11 14
11 15 0 146 127 146 141 0 5 14 23 30 41 17 17 30 35 30 40 0 5 9 18 20 30 11
12 20 28 20 35 0 10 48 13 233 13 214 0 235 2 250 18 10 10 17 28 17 40 l0 22
-500 0 -500 0 0 -40z"/>
<path d="M8270 6227 c0 -8 20 -34 45 -60 24 -26 52 -58 61 -72 19 -29 32 -32
41 -8 4 10 17 28 30 41 32 32 29 55 -9 70 -18 8 -42 17 -53 22 -39 16 -115 21
-115 7z"/>
<path d="M8540 6187 c-8 -7 -21 -25 -29 -42 -7 -16 -27 -57 -44 -90 -17 -33
-44 -87 -61 -120 -17 -33 -33 -62 -36 -65 -10 -10 -41 -65 -47 -82 -3 -10 -9
-18 -14 -18 -16 0 -9 -30 8 -37 9 -4 30 -19 47 -35 16 -15 34 -28 41 -28 10 0
43 57 65 115 5 11 17 41 29 67 12 26 21 56 21 66 0 31 24 72 43 72 9 0 17 5
17 10 0 6 -10 10 -21 10 -19 0 -21 4 -14 33 7 31 17 157 12 157 -1 0 -9 -6
-17 -13z"/>
<path d="M7180 5890 l0 -200 204 0 203 0 27 26 26 27 0 173 0 174 -230 0 -230
0 0 -200z m340 0 l0 -120 -94 0 c-52 0 -101 3 -110 6 -13 5 -16 25 -16 120 l0
114 110 0 110 0 0 -120z"/>
<path d="M6400 5970 l0 -40 176 0 c190 0 204 4 204 54 l0 26 -190 0 -190 0 0
-40z"/>
<path d="M2864 5983 c-13 -39 -90 -189 -106 -207 -10 -11 -18 -24 -18 -29 0
-4 -7 -16 -16 -25 -11 -10 -13 -17 -5 -20 14 -5 121 47 121 59 0 5 6 9 13 9
12 0 82 63 123 110 30 35 40 70 20 70 -9 0 -16 5 -16 10 0 6 -6 10 -14 10 -7
0 -27 7 -42 15 -38 20 -53 19 -60 -2z"/>
<path d="M3298 5958 c3 -13 8 -25 11 -28 11 -9 111 -214 111 -227 0 -7 9 -13
20 -13 11 0 20 5 20 10 0 6 6 10 14 10 15 0 76 55 76 69 0 5 -7 16 -15 25 -8
8 -15 19 -15 23 0 11 -53 63 -64 63 -4 0 -18 11 -32 25 -23 23 -102 65 -123
65 -5 0 -7 -10 -3 -22z"/>
<path d="M6456 5474 c-3 -9 -6 -90 -6 -180 l0 -164 25 0 c25 0 25 1 25 80 l0
80 85 0 c78 0 85 2 85 20 0 18 -7 20 -85 20 l-86 0 3 58 c3 64 -11 58 126 60
65 2 72 4 72 22 0 19 -7 20 -119 20 -99 0 -120 -3 -125 -16z"/>
<path d="M8118 5468 c-50 -28 -78 -89 -78 -167 0 -33 5 -63 10 -66 6 -3 10
-13 10 -22 0 -8 15 -30 33 -48 52 -52 122 -60 203 -23 24 11 63 77 56 96 -6
20 -42 13 -51 -10 -16 -43 -49 -63 -101 -62 -61 1 -94 31 -104 96 -16 106 28
188 100 188 49 0 104 -32 104 -59 0 -17 37 -13 44 5 4 9 -9 29 -35 55 -37 37
-43 39 -97 38 -38 0 -70 -8 -94 -21z"/>
<path d="M8936 5468 c-3 -13 -5 -34 -4 -48 1 -48 -1 -55 -14 -42 -7 7 -33 12
-59 12 -80 0 -119 -66 -103 -172 10 -62 45 -92 106 -92 32 0 53 5 59 15 8 11
12 11 16 2 2 -7 13 -13 24 -13 18 0 19 9 19 180 0 173 -1 180 -20 180 -12 0
-21 -8 -24 -22z m-33 -131 c7 -7 18 -23 25 -35 38 -67 -23 -172 -81 -139 -40
23 -47 35 -47 84 0 72 17 103 58 103 18 0 39 -6 45 -13z"/>
<path d="M6810 5281 c0 -137 11 -156 90 -155 33 0 55 6 62 15 7 11 11 11 15 2
2 -7 13 -13 24 -13 18 0 19 9 19 130 0 123 -1 130 -20 130 -18 0 -20 -7 -20
-77 0 -125 -26 -164 -95 -147 -24 6 -25 8 -25 99 0 107 -5 125 -31 125 -17 0
-19 -9 -19 -109z"/>
<path d="M7127 5383 c-4 -3 -7 -62 -7 -130 l0 -123 24 0 c23 0 24 2 28 93 4
107 15 127 72 127 20 0 37 -1 37 -2 1 -2 4 -50 8 -108 6 -99 7 -105 29 -108
22 -3 22 -1 22 100 0 94 -2 105 -24 131 -19 22 -32 27 -70 27 -25 0 -46 -4
-46 -10 0 -5 -9 -10 -20 -10 -11 0 -20 5 -20 10 0 11 -23 14 -33 3z"/>
<path d="M7440 5260 c0 -123 1 -130 20 -130 18 0 20 7 20 78 0 95 23 142 69
142 44 0 55 -22 59 -126 4 -91 5 -94 28 -94 23 0 24 3 24 73 -1 88 -15 156
-38 173 -22 17 -86 18 -113 2 -17 -10 -23 -10 -26 0 -3 6 -13 12 -24 12 -18 0
-19 -9 -19 -130z"/>
<path d="M7740 5366 c0 -14 5 -28 10 -31 6 -3 10 -15 10 -26 0 -10 4 -27 9
-37 5 -9 14 -30 21 -47 7 -16 17 -39 22 -51 5 -11 8 -36 6 -55 -2 -27 -10 -37
-35 -49 -52 -24 -39 -57 17 -45 22 5 35 18 54 58 14 28 26 56 26 62 0 6 9 30
20 53 11 22 20 48 20 56 0 8 5 18 10 21 6 3 10 17 10 30 0 13 5 27 10 30 6 3
10 17 10 31 0 17 -5 24 -20 24 -13 0 -20 -7 -20 -19 0 -11 -4 -23 -10 -26 -5
-3 -10 -17 -10 -31 0 -13 -4 -24 -8 -24 -5 0 -15 -22 -22 -50 -14 -53 -30 -66
-30 -26 0 14 -4 27 -8 30 -4 3 -14 28 -22 55 -7 28 -17 51 -22 51 -4 0 -8 9
-8 20 0 13 -7 20 -20 20 -15 0 -20 -7 -20 -24z"/>
<path d="M8488 5373 c-16 -8 -28 -21 -28 -29 0 -7 -4 -14 -10 -14 -6 0 -10
-31 -10 -72 0 -64 3 -77 26 -103 23 -27 31 -30 88 -30 48 0 67 4 81 19 31 31
45 65 45 113 0 51 -12 79 -49 110 -31 27 -99 30 -143 6z m116 -36 c38 -38 35
-119 -7 -164 -23 -26 -33 -28 -68 -11 -51 24 -67 117 -27 163 24 28 80 35 102
12z"/>
<path d="M9120 5380 c0 -5 -7 -10 -15 -10 -9 0 -19 -8 -22 -17 -4 -10 -11 -21
-16 -24 -6 -4 -10 -38 -10 -77 0 -64 3 -73 29 -98 25 -26 35 -29 90 -29 69 0
104 20 104 62 0 26 -34 33 -43 9 -3 -8 -19 -22 -35 -30 -36 -18 -75 -5 -92 32
-22 49 -17 52 83 52 52 0 96 2 99 5 10 11 -18 87 -41 111 -19 19 -33 24 -77
24 -30 0 -54 -4 -54 -10z m106 -45 c9 -8 14 -23 12 -33 -3 -13 -15 -18 -62
-20 -73 -4 -89 8 -56 43 27 29 82 34 106 10z"/>
</g>
</svg>
